<svg id="visual" viewBox="0 0 900 600" width="900" height="600" xmlns="http://www.w3.org/2000/svg" xmlns:xlink="http://www.w3.org/1999/xlink" version="1.1"><rect width="900" height="600" fill="#312e56"></rect><g><g transform="translate(332 29)"><path d="M0 -114.9L99.5 -57.5L99.5 57.5L0 114.9L-99.5 57.5L-99.5 -57.5Z" stroke="#99aeb7" fill="none" stroke-width="2"></path></g><g transform="translate(610 590)"><path d="M0 -66L57.2 -33L57.2 33L0 66L-57.2 33L-57.2 -33Z" stroke="#99aeb7" fill="none" stroke-width="2"></path></g><g transform="translate(689 210)"><path d="M0 -112L97 -56L97 56L0 112L-97 56L-97 -56Z" stroke="#99aeb7" fill="none" stroke-width="2"></path></g><g transform="translate(355 433)"><path d="M0 -81L70.1 -40.5L70.1 40.5L0 81L-70.1 40.5L-70.1 -40.5Z" stroke="#99aeb7" fill="none" stroke-width="2"></path></g><g transform="translate(83 50)"><path d="M0 -89L77.1 -44.5L77.1 44.5L0 89L-77.1 44.5L-77.1 -44.5Z" stroke="#99aeb7" fill="none" stroke-width="2"></path></g><g transform="translate(103 486)"><path d="M0 -98L84.9 -49L84.9 49L0 98L-84.9 49L-84.9 -49Z" stroke="#99aeb7" fill="none" stroke-width="2"></path></g><g transform="translate(869 375)"><path d="M0 -88L76.2 -44L76.2 44L0 88L-76.2 44L-76.2 -44Z" stroke="#99aeb7" fill="none" stroke-width="2"></path></g><g transform="translate(852 33)"><path d="M0 -69L59.8 -34.5L59.8 34.5L0 69L-59.8 34.5L-59.8 -34.5Z" stroke="#99aeb7" fill="none" stroke-width="2"></path></g></g></svg>