<svg id="visual" viewBox="0 0 900 600" width="900" height="600" xmlns="http://www.w3.org/2000/svg" xmlns:xlink="http://www.w3.org/1999/xlink" version="1.1"><rect width="900" height="600" fill="#181030"></rect><g><g transform="translate(670 159)"><path d="M0 -147L127.3 -73.5L127.3 73.5L0 147L-127.3 73.5L-127.3 -73.5Z" stroke="#297EA6" fill="none" stroke-width="2"></path></g><g transform="translate(371 253)"><path d="M0 -103L89.2 -51.5L89.2 51.5L0 103L-89.2 51.5L-89.2 -51.5Z" stroke="#297EA6" fill="none" stroke-width="2"></path></g><g transform="translate(655 569)"><path d="M0 -131L113.4 -65.5L113.4 65.5L0 131L-113.4 65.5L-113.4 -65.5Z" stroke="#297EA6" fill="none" stroke-width="2"></path></g><g transform="translate(13 557)"><path d="M0 -139L120.4 -69.5L120.4 69.5L0 139L-120.4 69.5L-120.4 -69.5Z" stroke="#297EA6" fill="none" stroke-width="2"></path></g><g transform="translate(146 5)"><path d="M0 -89L77.1 -44.5L77.1 44.5L0 89L-77.1 44.5L-77.1 -44.5Z" stroke="#297EA6" fill="none" stroke-width="2"></path></g><g transform="translate(360 553)"><path d="M0 -84L72.7 -42L72.7 42L0 84L-72.7 42L-72.7 -42Z" stroke="#297EA6" fill="none" stroke-width="2"></path></g></g></svg>