<svg id="visual" viewBox="0 0 900 600" width="900" height="600" xmlns="http://www.w3.org/2000/svg" xmlns:xlink="http://www.w3.org/1999/xlink" version="1.1"><rect width="900" height="600" fill="#181030"></rect><g><g transform="translate(478 188)"><path d="M0 -100.4L86.9 -50.2L86.9 50.2L0 100.4L-86.9 50.2L-86.9 -50.2Z" stroke="#297EA6" fill="none" stroke-width="2"></path></g><g transform="translate(437 464)"><path d="M0 -97L84 -48.5L84 48.5L0 97L-84 48.5L-84 -48.5Z" stroke="#297EA6" fill="none" stroke-width="2"></path></g><g transform="translate(744 57)"><path d="M0 -77L66.7 -38.5L66.7 38.5L0 77L-66.7 38.5L-66.7 -38.5Z" stroke="#297EA6" fill="none" stroke-width="2"></path></g><g transform="translate(690 395)"><path d="M0 -58L50.2 -29L50.2 29L0 58L-50.2 29L-50.2 -29Z" stroke="#297EA6" fill="none" stroke-width="2"></path></g><g transform="translate(34 475)"><path d="M0 -98L84.9 -49L84.9 49L0 98L-84.9 49L-84.9 -49Z" stroke="#297EA6" fill="none" stroke-width="2"></path></g><g transform="translate(770 586)"><path d="M0 -63L54.6 -31.5L54.6 31.5L0 63L-54.6 31.5L-54.6 -31.5Z" stroke="#297EA6" fill="none" stroke-width="2"></path></g><g transform="translate(321 58)"><path d="M0 -69L59.8 -34.5L59.8 34.5L0 69L-59.8 34.5L-59.8 -34.5Z" stroke="#297EA6" fill="none" stroke-width="2"></path></g><g transform="translate(50 102)"><path d="M0 -97L84 -48.5L84 48.5L0 97L-84 48.5L-84 -48.5Z" stroke="#297EA6" fill="none" stroke-width="2"></path></g><g transform="translate(293 269)"><path d="M0 -85L73.6 -42.5L73.6 42.5L0 85L-73.6 42.5L-73.6 -42.5Z" stroke="#297EA6" fill="none" stroke-width="2"></path></g><g transform="translate(886 229)"><path d="M0 -66L57.2 -33L57.2 33L0 66L-57.2 33L-57.2 -33Z" stroke="#297EA6" fill="none" stroke-width="2"></path></g></g></svg>