<?xml version="1.0" standalone="no"?><svg xmlns="http://www.w3.org/2000/svg" viewBox="0 0 1440 320"><path fill="#a5a5ac" fill-opacity="1" d="M0,0L17.1,32C34.3,64,69,128,103,160C137.1,192,171,192,206,213.3C240,235,274,277,309,277.3C342.9,277,377,235,411,224C445.7,213,480,235,514,213.3C548.6,192,583,128,617,106.7C651.4,85,686,107,720,144C754.3,181,789,235,823,234.7C857.1,235,891,181,926,181.3C960,181,994,235,1029,218.7C1062.9,203,1097,117,1131,74.7C1165.7,32,1200,32,1234,42.7C1268.6,53,1303,75,1337,74.7C1371.4,75,1406,53,1423,42.7L1440,32L1440,320L1422.9,320C1405.7,320,1371,320,1337,320C1302.9,320,1269,320,1234,320C1200,320,1166,320,1131,320C1097.1,320,1063,320,1029,320C994.3,320,960,320,926,320C891.4,320,857,320,823,320C788.6,320,754,320,720,320C685.7,320,651,320,617,320C582.9,320,549,320,514,320C480,320,446,320,411,320C377.1,320,343,320,309,320C274.3,320,240,320,206,320C171.4,320,137,320,103,320C68.6,320,34,320,17,320L0,320Z"></path></svg>